<?xml version="1.0" encoding="UTF-8" standalone="no"?>
<svg
   xmlns:dc="http://purl.org/dc/elements/1.1/"
   xmlns:cc="http://creativecommons.org/ns#"
   xmlns:rdf="http://www.w3.org/1999/02/22-rdf-syntax-ns#"
   xmlns:svg="http://www.w3.org/2000/svg"
   xmlns="http://www.w3.org/2000/svg"
   xmlns:sodipodi="http://sodipodi.sourceforge.net/DTD/sodipodi-0.dtd"
   xmlns:inkscape="http://www.inkscape.org/namespaces/inkscape"
   width="162.70111mm"
   height="108.36451mm"
   viewBox="0 0 162.70111 108.36451"
   version="1.1"
   id="svg8"
   inkscape:version="1.0.2-2 (e86c870879, 2021-01-15)"
   sodipodi:docname="Count of symptom occurrences (VR).svg">
  <defs
     id="defs2">
    <clipPath
       clipPathUnits="userSpaceOnUse"
       id="clipPath849">
      <path
         d="M 8.871e-6,0 H 595.32001 V 841.92 H 8.871e-6 Z"
         clip-rule="evenodd"
         id="path847" />
    </clipPath>
    <clipPath
       clipPathUnits="userSpaceOnUse"
       id="clipPath871">
      <path
         d="M 72,463.2 H 532.44 V 769.92 H 72 Z"
         clip-rule="evenodd"
         id="path869" />
    </clipPath>
    <clipPath
       clipPathUnits="userSpaceOnUse"
       id="clipPath883">
      <path
         d="M 72,463.2 H 532.44 V 769.92 H 72 Z"
         clip-rule="evenodd"
         id="path881" />
    </clipPath>
    <clipPath
       clipPathUnits="userSpaceOnUse"
       id="clipPath895">
      <path
         d="M 72,463.2 H 532.44 V 769.92 H 72 Z"
         clip-rule="evenodd"
         id="path893" />
    </clipPath>
    <clipPath
       clipPathUnits="userSpaceOnUse"
       id="clipPath907">
      <path
         d="M 72,463.2 H 532.44 V 769.92 H 72 Z"
         clip-rule="evenodd"
         id="path905" />
    </clipPath>
    <clipPath
       clipPathUnits="userSpaceOnUse"
       id="clipPath919">
      <path
         d="M 72,463.2 H 532.44 V 769.92 H 72 Z"
         clip-rule="evenodd"
         id="path917" />
    </clipPath>
    <clipPath
       clipPathUnits="userSpaceOnUse"
       id="clipPath931">
      <path
         d="M 72,463.2 H 532.44 V 769.92 H 72 Z"
         clip-rule="evenodd"
         id="path929" />
    </clipPath>
    <clipPath
       clipPathUnits="userSpaceOnUse"
       id="clipPath943">
      <path
         d="M 72,463.2 H 532.44 V 769.92 H 72 Z"
         clip-rule="evenodd"
         id="path941" />
    </clipPath>
    <clipPath
       clipPathUnits="userSpaceOnUse"
       id="clipPath955">
      <path
         d="M 72,463.2 H 532.44 V 769.92 H 72 Z"
         clip-rule="evenodd"
         id="path953" />
    </clipPath>
    <clipPath
       clipPathUnits="userSpaceOnUse"
       id="clipPath967">
      <path
         d="M 72,463.2 H 532.44 V 769.92 H 72 Z"
         clip-rule="evenodd"
         id="path965" />
    </clipPath>
    <clipPath
       clipPathUnits="userSpaceOnUse"
       id="clipPath979">
      <path
         d="M 72,463.2 H 532.44 V 769.92 H 72 Z"
         clip-rule="evenodd"
         id="path977" />
    </clipPath>
    <clipPath
       clipPathUnits="userSpaceOnUse"
       id="clipPath991">
      <path
         d="M 72,463.2 H 532.44 V 769.92 H 72 Z"
         clip-rule="evenodd"
         id="path989" />
    </clipPath>
    <clipPath
       clipPathUnits="userSpaceOnUse"
       id="clipPath1003">
      <path
         d="M 72,463.2 H 532.44 V 769.92 H 72 Z"
         clip-rule="evenodd"
         id="path1001" />
    </clipPath>
    <clipPath
       clipPathUnits="userSpaceOnUse"
       id="clipPath1015">
      <path
         d="M 72,463.2 H 532.44 V 769.92 H 72 Z"
         clip-rule="evenodd"
         id="path1013" />
    </clipPath>
    <clipPath
       clipPathUnits="userSpaceOnUse"
       id="clipPath1027">
      <path
         d="M 72,463.2 H 532.44 V 769.92 H 72 Z"
         clip-rule="evenodd"
         id="path1025" />
    </clipPath>
    <clipPath
       clipPathUnits="userSpaceOnUse"
       id="clipPath1041">
      <path
         d="M 72,463.2 H 532.44 V 769.92 H 72 Z"
         clip-rule="evenodd"
         id="path1039" />
    </clipPath>
    <clipPath
       clipPathUnits="userSpaceOnUse"
       id="clipPath1055">
      <path
         d="M 72,463.2 H 532.44 V 769.92 H 72 Z"
         clip-rule="evenodd"
         id="path1053" />
    </clipPath>
    <clipPath
       clipPathUnits="userSpaceOnUse"
       id="clipPath1069">
      <path
         d="M 72,463.2 H 532.44 V 769.92 H 72 Z"
         clip-rule="evenodd"
         id="path1067" />
    </clipPath>
    <clipPath
       clipPathUnits="userSpaceOnUse"
       id="clipPath1083">
      <path
         d="M 72,463.2 H 532.44 V 769.92 H 72 Z"
         clip-rule="evenodd"
         id="path1081" />
    </clipPath>
    <clipPath
       clipPathUnits="userSpaceOnUse"
       id="clipPath1095">
      <path
         d="M 0,453.36 H 595.32 V 769.92 H 0 Z"
         clip-rule="evenodd"
         id="path1093" />
    </clipPath>
  </defs>
  <sodipodi:namedview
     id="base"
     pagecolor="#ffffff"
     bordercolor="#666666"
     borderopacity="1.0"
     inkscape:pageopacity="0.0"
     inkscape:pageshadow="2"
     inkscape:zoom="0.35"
     inkscape:cx="536.03809"
     inkscape:cy="1179.069"
     inkscape:document-units="mm"
     inkscape:current-layer="layer1"
     inkscape:document-rotation="0"
     showgrid="false"
     fit-margin-top="0"
     fit-margin-left="0"
     fit-margin-right="0"
     fit-margin-bottom="0"
     inkscape:window-width="1624"
     inkscape:window-height="1228"
     inkscape:window-x="114"
     inkscape:window-y="96"
     inkscape:window-maximized="0" />
  <metadata
     id="metadata5">
    <rdf:RDF>
      <cc:Work
         rdf:about="">
        <dc:format>image/svg+xml</dc:format>
        <dc:type
           rdf:resource="http://purl.org/dc/dcmitype/StillImage" />
        <dc:title></dc:title>
      </cc:Work>
    </rdf:RDF>
  </metadata>
  <g
     inkscape:label="Layer 1"
     inkscape:groupmode="layer"
     id="layer1"
     transform="translate(35.993411,163.79535)">
    <g
       id="g841"
       inkscape:label="Count of symptom occurrences (VR)"
       transform="matrix(0.35277777,0,0,-0.35277777,-61.261119,107.81531)">
      <g
         id="g843">
        <g
           id="g845"
           clip-path="url(#clipPath849)" />
      </g>
      <path
         d="m 72,463.12 h 460.45 v 306.8 H 72 Z"
         style="fill:#ffffff;fill-opacity:1;fill-rule:evenodd;stroke:none"
         id="path851" />
      <path
         d="M 90.656,539.28 H 521.45 M 90.656,571.68 H 521.45 M 90.656,604.08 H 521.45 M 90.656,636.48 H 521.45 M 90.656,669 H 521.45 M 90.656,701.4 H 521.45 M 90.656,733.82 H 521.45"
         style="fill:none;stroke:#d9d9d9;stroke-width:0.75;stroke-linecap:butt;stroke-linejoin:round;stroke-miterlimit:10;stroke-dasharray:none;stroke-opacity:1"
         id="path853" />
      <path
         d="m 102.36,604.08 h 15.72 V 506.8 h -15.72 z m 86.16,0 h 15.72 V 506.8 h -15.72 z m 86.16,0 H 290.4 V 506.8 h -15.72 z m 86.16,0 h 15.72 V 506.8 h -15.72 z m 86.16,0 h 15.72 V 506.8 H 447 Z"
         style="fill:#4472c4;fill-opacity:1;fill-rule:nonzero;stroke:none"
         id="path855" />
      <path
         d="m 118.08,539.28 h 15.6 V 506.8 h -15.6 z m 86.16,0 h 15.6 V 506.8 h -15.6 z m 86.16,0 H 306 V 506.8 h -15.6 z m 86.16,0 h 15.6 V 506.8 h -15.6 z m 86.16,0 h 15.6 V 506.8 h -15.6 z"
         style="fill:#ed7d31;fill-opacity:1;fill-rule:nonzero;stroke:none"
         id="path857" />
      <path
         d="M 133.68,701.4 H 149.4 V 506.8 H 133.68 Z M 219.84,669 h 15.72 V 506.8 h -15.72 z m 86.16,0 h 15.72 V 506.8 H 306 Z m 86.16,-32.52 h 15.72 V 506.8 H 392.16 Z M 478.32,669 h 15.72 V 506.8 h -15.72 z"
         style="fill:#92d050;fill-opacity:1;fill-rule:nonzero;stroke:none"
         id="path859" />
      <path
         d="m 149.4,636.48 h 15.72 V 506.8 H 149.4 Z m 86.16,0 h 15.72 V 506.8 h -15.72 z m 86.16,-32.4 h 15.72 V 506.8 h -15.72 z m 86.16,0 H 423.6 V 506.8 h -15.72 z m 86.16,32.4 h 15.72 V 506.8 h -15.72 z"
         style="fill:#ffc000;fill-opacity:1;fill-rule:nonzero;stroke:none"
         id="path861" />
      <path
         d="M 90.656,506.8 H 521.45"
         style="fill:none;stroke:#d9d9d9;stroke-width:0.75;stroke-linecap:butt;stroke-linejoin:round;stroke-miterlimit:10;stroke-dasharray:none;stroke-opacity:1"
         id="path863" />
      <g
         id="g865">
        <g
           id="g867"
           clip-path="url(#clipPath871)">
          <text
             transform="matrix(1,0,0,-1,78.504,503.93)"
             style="font-variant:normal;font-weight:normal;font-size:9px;font-family:'Times New Roman';-inkscape-font-specification:TimesNewRomanPSMT;writing-mode:lr-tb;fill:#595959;fill-opacity:1;fill-rule:nonzero;stroke:none"
             id="text875"><tspan
               x="0"
               y="0"
               id="tspan873">0</tspan></text>
        </g>
      </g>
      <g
         id="g877">
        <g
           id="g879"
           clip-path="url(#clipPath883)">
          <text
             transform="matrix(1,0,0,-1,78.504,536.38)"
             style="font-variant:normal;font-weight:normal;font-size:9px;font-family:'Times New Roman';-inkscape-font-specification:TimesNewRomanPSMT;writing-mode:lr-tb;fill:#595959;fill-opacity:1;fill-rule:nonzero;stroke:none"
             id="text887"><tspan
               x="0"
               y="0"
               id="tspan885">1</tspan></text>
        </g>
      </g>
      <g
         id="g889">
        <g
           id="g891"
           clip-path="url(#clipPath895)">
          <text
             transform="matrix(1,0,0,-1,78.504,568.8)"
             style="font-variant:normal;font-weight:normal;font-size:9px;font-family:'Times New Roman';-inkscape-font-specification:TimesNewRomanPSMT;writing-mode:lr-tb;fill:#595959;fill-opacity:1;fill-rule:nonzero;stroke:none"
             id="text899"><tspan
               x="0"
               y="0"
               id="tspan897">2</tspan></text>
        </g>
      </g>
      <g
         id="g901">
        <g
           id="g903"
           clip-path="url(#clipPath907)">
          <text
             transform="matrix(1,0,0,-1,78.504,601.25)"
             style="font-variant:normal;font-weight:normal;font-size:9px;font-family:'Times New Roman';-inkscape-font-specification:TimesNewRomanPSMT;writing-mode:lr-tb;fill:#595959;fill-opacity:1;fill-rule:nonzero;stroke:none"
             id="text911"><tspan
               x="0"
               y="0"
               id="tspan909">3</tspan></text>
        </g>
      </g>
      <g
         id="g913">
        <g
           id="g915"
           clip-path="url(#clipPath919)">
          <text
             transform="matrix(1,0,0,-1,78.504,633.67)"
             style="font-variant:normal;font-weight:normal;font-size:9px;font-family:'Times New Roman';-inkscape-font-specification:TimesNewRomanPSMT;writing-mode:lr-tb;fill:#595959;fill-opacity:1;fill-rule:nonzero;stroke:none"
             id="text923"><tspan
               x="0"
               y="0"
               id="tspan921">4</tspan></text>
        </g>
      </g>
      <g
         id="g925">
        <g
           id="g927"
           clip-path="url(#clipPath931)">
          <text
             transform="matrix(1,0,0,-1,78.504,666.12)"
             style="font-variant:normal;font-weight:normal;font-size:9px;font-family:'Times New Roman';-inkscape-font-specification:TimesNewRomanPSMT;writing-mode:lr-tb;fill:#595959;fill-opacity:1;fill-rule:nonzero;stroke:none"
             id="text935"><tspan
               x="0"
               y="0"
               id="tspan933">5</tspan></text>
        </g>
      </g>
      <g
         id="g937">
        <g
           id="g939"
           clip-path="url(#clipPath943)">
          <text
             transform="matrix(1,0,0,-1,78.504,698.54)"
             style="font-variant:normal;font-weight:normal;font-size:9px;font-family:'Times New Roman';-inkscape-font-specification:TimesNewRomanPSMT;writing-mode:lr-tb;fill:#595959;fill-opacity:1;fill-rule:nonzero;stroke:none"
             id="text947"><tspan
               x="0"
               y="0"
               id="tspan945">6</tspan></text>
        </g>
      </g>
      <g
         id="g949">
        <g
           id="g951"
           clip-path="url(#clipPath955)">
          <text
             transform="matrix(1,0,0,-1,78.504,730.99)"
             style="font-variant:normal;font-weight:normal;font-size:9px;font-family:'Times New Roman';-inkscape-font-specification:TimesNewRomanPSMT;writing-mode:lr-tb;fill:#595959;fill-opacity:1;fill-rule:nonzero;stroke:none"
             id="text959"><tspan
               x="0"
               y="0"
               id="tspan957">7</tspan></text>
        </g>
      </g>
      <g
         id="g961">
        <g
           id="g963"
           clip-path="url(#clipPath967)">
          <text
             transform="matrix(1,0,0,-1,114.26,493.37)"
             style="font-variant:normal;font-weight:normal;font-size:9px;font-family:'Times New Roman';-inkscape-font-specification:TimesNewRomanPSMT;writing-mode:lr-tb;fill:#595959;fill-opacity:1;fill-rule:nonzero;stroke:none"
             id="text971"><tspan
               x="0 4.5539999 6.9569998 10.548 14.508 18.945 26.018999 29.016001 33.462002 36.459"
               y="0"
               sodipodi:role="line"
               id="tspan969">discomfort</tspan></text>
        </g>
      </g>
      <g
         id="g973">
        <g
           id="g975"
           clip-path="url(#clipPath979)">
          <text
             transform="matrix(1,0,0,-1,207.7,493.37)"
             style="font-variant:normal;font-weight:normal;font-size:9px;font-family:'Times New Roman';-inkscape-font-specification:TimesNewRomanPSMT;writing-mode:lr-tb;fill:#595959;fill-opacity:1;fill-rule:nonzero;stroke:none"
             id="text983"><tspan
               x="0 4.5539999 8.5139999 12.951 16.452 20.502001"
               y="0"
               sodipodi:role="line"
               id="tspan981">nausea</tspan></text>
        </g>
      </g>
      <g
         id="g985">
        <g
           id="g987"
           clip-path="url(#clipPath991)">
          <text
             transform="matrix(1,0,0,-1,289.61,493.37)"
             style="font-variant:normal;font-weight:normal;font-size:9px;font-family:'Times New Roman';-inkscape-font-specification:TimesNewRomanPSMT;writing-mode:lr-tb;fill:#595959;fill-opacity:1;fill-rule:nonzero;stroke:none"
             id="text995"><tspan
               x="0 4.5539999 6.9569998 11.025 14.985 17.487 21.941999 26.01 29.511"
               y="0"
               sodipodi:role="line"
               id="tspan993">dizziness</tspan></text>
        </g>
      </g>
      <g
         id="g997">
        <g
           id="g999"
           clip-path="url(#clipPath1003)">
          <text
             transform="matrix(1,0,0,-1,375.55,493.37)"
             style="font-variant:normal;font-weight:normal;font-size:9px;font-family:'Times New Roman';-inkscape-font-specification:TimesNewRomanPSMT;writing-mode:lr-tb;fill:#595959;fill-opacity:1;fill-rule:nonzero;stroke:none"
             id="text1007"><tspan
               x="0 4.5539999 8.5139999 12.474 17.028 20.988001 24.948 29.502001"
               y="0"
               sodipodi:role="line"
               id="tspan1005">headache</tspan></text>
        </g>
      </g>
      <g
         id="g1009">
        <g
           id="g1011"
           clip-path="url(#clipPath1015)">
          <text
             transform="matrix(1,0,0,-1,445.85,493.37)"
             style="font-variant:normal;font-weight:normal;font-size:9px;font-family:'Times New Roman';-inkscape-font-specification:TimesNewRomanPSMT;writing-mode:lr-tb;fill:#595959;fill-opacity:1;fill-rule:nonzero;stroke:none"
             id="text1019"><tspan
               x="0 4.5539999 6.9569998 10.548 14.985 18.945 21.447001 23.733 26.235001 33.237 37.764 41.723999 44.226002 47.223 54.224998 58.167 62.721001"
               y="0"
               sodipodi:role="line"
               id="tspan1017">visual impairment</tspan></text>
        </g>
      </g>
      <g
         id="g1021">
        <g
           id="g1023"
           clip-path="url(#clipPath1027)">
          <text
             transform="matrix(1,0,0,-1,198.48,749.33)"
             style="font-variant:normal;font-weight:normal;font-size:14.04px;font-family:'Times New Roman';-inkscape-font-specification:TimesNewRomanPSMT;writing-mode:lr-tb;fill:#595959;fill-opacity:1;fill-rule:nonzero;stroke:none"
             id="text1031"><tspan
               x="0 9.3646803 16.4268 23.48892 30.551041 34.496281 37.613159 44.675282 49.350601 52.8606 58.322159 65.201759 75.8862 82.948318 86.893562 93.955681 104.64012 108.34668 115.4088 121.64256 127.87632 134.95248 139.62781 144.30312 150.53688 157.61304 163.8468 170.08057 175.5 178.61688 183.29221 193.37292 202.73759 207.41292"
               y="0"
               sodipodi:role="line"
               id="tspan1029">Count of symptom occurrences (VR)</tspan></text>
        </g>
      </g>
      <path
         d="m 155.66,474.81 h 4.4843 v 4.4843 H 155.66 Z"
         style="fill:#4472c4;fill-opacity:1;fill-rule:evenodd;stroke:none"
         id="path1033" />
      <g
         id="g1035">
        <g
           id="g1037"
           clip-path="url(#clipPath1041)">
          <text
             transform="matrix(1,0,0,-1,164.318,474.19)"
             style="font-variant:normal;font-weight:normal;font-size:9px;font-family:'Times New Roman';-inkscape-font-specification:TimesNewRomanPSMT;writing-mode:lr-tb;fill:#595959;fill-opacity:1;fill-rule:nonzero;stroke:none"
             id="text1045"><tspan
               x="0 4.4369998 6.9390001 10.935 15.471 17.973 22.427999 26.982 29.142 33.695999 38.132999 40.401001 44.955002 49.391998 51.894001 55.889999 59.939999 62.342999"
               y="0"
               sodipodi:role="line"
               id="tspan1043">picking up objects</tspan></text>
        </g>
      </g>
      <path
         d="m 243.55,474.81 h 4.4843 v 4.4843 H 243.55 Z"
         style="fill:#ed7d31;fill-opacity:1;fill-rule:evenodd;stroke:none"
         id="path1047" />
      <g
         id="g1049">
        <g
           id="g1051"
           clip-path="url(#clipPath1055)">
          <text
             transform="matrix(1,0,0,-1,249.96,474.19)"
             style="font-variant:normal;font-weight:normal;font-size:9px;font-family:'Times New Roman';-inkscape-font-specification:TimesNewRomanPSMT;writing-mode:lr-tb;fill:#595959;fill-opacity:1;fill-rule:nonzero;stroke:none"
             id="text1059"><tspan
               x="0 2.5020001 6.9569998 9.9540005 14.508 21.006001 23.507999 27.945 32.499001 34.766998 39.203999 43.757999 46.160999 50.229 54.188999 56.691002"
               y="0"
               sodipodi:role="line"
               id="tspan1057">throwing objects</tspan></text>
        </g>
      </g>
      <path
         d="m 323.44,474.81 h 4.4843 v 4.4843 H 323.44 Z"
         style="fill:#92d050;fill-opacity:1;fill-rule:evenodd;stroke:none"
         id="path1061" />
      <g
         id="g1063">
        <g
           id="g1065"
           clip-path="url(#clipPath1069)">
          <text
             transform="matrix(1,0,0,-1,329.86,474.19)"
             style="font-variant:normal;font-weight:normal;font-size:9px;font-family:'Times New Roman';-inkscape-font-specification:TimesNewRomanPSMT;writing-mode:lr-tb;fill:#595959;fill-opacity:1;fill-rule:nonzero;stroke:none"
             id="text1073"><tspan
               x="0 6.4980001 10.44 12.942 17.514 20.016001 24.471001"
               y="0"
               sodipodi:role="line"
               id="tspan1071">walking</tspan></text>
        </g>
      </g>
      <path
         d="m 372.08,474.81 h 4.4843 v 4.4843 H 372.08 Z"
         style="fill:#ffc000;fill-opacity:1;fill-rule:evenodd;stroke:none"
         id="path1075" />
      <g
         id="g1077">
        <g
           id="g1079"
           clip-path="url(#clipPath1083)">
          <text
             transform="matrix(1,0,0,-1,378.5,474.19)"
             style="font-variant:normal;font-weight:normal;font-size:9px;font-family:'Times New Roman';-inkscape-font-specification:TimesNewRomanPSMT;writing-mode:lr-tb;fill:#595959;fill-opacity:1;fill-rule:nonzero;stroke:none"
             id="text1087"><tspan
               x="0 2.997 7.4429998 9.9449997 14.031 16.434 18.936001 23.507999 27.945 30.212999 33.209999 37.655998 42.209999 46.646999 51.201 53.702999 58.158001 62.226002 66.185997 70.623001"
               y="0"
               sodipodi:role="line"
               id="tspan1085">rotating (body/head)</tspan></text>
        </g>
      </g>
      <g
         id="g1089">
        <g
           id="g1091"
           clip-path="url(#clipPath1095)">
          <path
             d="m 72,463.12 h 460.45 v 306.8 H 72 Z"
             style="fill:none;stroke:#d9d9d9;stroke-width:0.75;stroke-linecap:butt;stroke-linejoin:round;stroke-miterlimit:10;stroke-dasharray:none;stroke-opacity:1"
             id="path1097" />
        </g>
      </g>
    </g>
  </g>
</svg>
